<?xml version="1.0" encoding="UTF-8" standalone="no"?>
<svg
   xmlns:dc="http://purl.org/dc/elements/1.1/"
   xmlns:cc="http://creativecommons.org/ns#"
   xmlns:rdf="http://www.w3.org/1999/02/22-rdf-syntax-ns#"
   xmlns:svg="http://www.w3.org/2000/svg"
   xmlns="http://www.w3.org/2000/svg"
   id="svg5272"
   version="1.1"
   viewBox="0 0 79.375 101.93047"
   height="101.93047mm"
   width="79.375mm">
  <defs
     id="defs5266" />
  <metadata
     id="metadata5269">
    <rdf:RDF>
      <cc:Work
         rdf:about="">
        <dc:format>image/svg+xml</dc:format>
        <dc:type
           rdf:resource="http://purl.org/dc/dcmitype/StillImage" />
        <dc:title></dc:title>
      </cc:Work>
    </rdf:RDF>
  </metadata>
  <g
     transform="translate(190.87798,7.2092841)"
     id="layer1">
    <g
       transform="matrix(1.5707464,0,0,1.5707464,-36.067153,-98.712807)"
       id="g5225">
      <path
         id="path4546"
         style="fill:#ee293d;fill-opacity:1;fill-rule:nonzero;stroke:none;stroke-width:0.35277778"
         d="m -67.315338,93.461576 c 0,-0.268817 -0.136525,-0.621594 -0.662517,-0.6223 l -0.169686,3.53e-4 -3.53e-4,1.208264 h 0.0762 c 0.508353,3.52e-4 0.755298,-0.183798 0.756356,-0.586317" />
      <path
         id="path4550"
         style="fill:#ee293d;fill-opacity:1;fill-rule:nonzero;stroke:none;stroke-width:0.35277778"
         d="m -75.666293,93.848926 c -0.365478,-3.53e-4 -0.629003,0.275872 -0.629003,0.65405 3.53e-4,0.377825 0.26282,0.655108 0.627239,0.655461 0.365125,3.53e-4 0.628297,-0.276578 0.629356,-0.654403 -3.53e-4,-0.378177 -0.262467,-0.654402 -0.627592,-0.655108" />
      <path
         id="path4554"
         style="fill:#ee293d;fill-opacity:1;fill-rule:nonzero;stroke:none;stroke-width:0.35277778"
         d="m -78.908674,94.668429 c 0.0014,-1.804458 1.428397,-3.222272 3.243792,-3.220508 1.815394,0.0014 3.239911,1.421341 3.238852,3.226505 -0.0018,1.81222 -1.428044,3.230386 -3.243791,3.229328 -1.8161,-0.0021 -3.240617,-1.422047 -3.238853,-3.235325 m -0.894644,-0.353131 -1.408289,-0.0011 -0.0028,3.482975 -2.799997,-0.0025 0.0025,-3.482975 -1.408289,-0.0011 0.0028,-2.770011 5.616928,0.0042 z m -9.445978,3.576109 c -1.052689,-3.53e-4 -1.9939,-0.127353 -2.893483,-0.47237 l 0.68968,-2.08915 c 0.371828,0.587728 1.025878,0.999773 1.585736,0.99942 0.263173,0 0.466373,-0.149578 0.467078,-0.351014 7.06e-4,-0.747536 -2.477558,-0.547864 -2.475441,-2.44475 0.0011,-1.385358 1.036813,-2.098322 3.030008,-2.096911 0.85725,7.05e-4 1.858433,0.169333 2.529416,0.421569 l -0.6985,1.972028 c -0.42298,-0.578556 -0.991658,-0.915458 -1.568097,-0.915811 -0.34043,0 -0.492478,0.150989 -0.493183,0.369005 0,0.45332 1.713089,0.682273 2.425347,1.387828 0.289278,0.285045 0.441325,0.679097 0.440619,1.166636 -0.0011,1.301045 -0.986013,2.055989 -3.03918,2.05352 m 18.302463,-6.339064 4.132087,0.0039 c 1.595966,0.0014 2.298699,0.942269 2.297994,1.873955 -7.06e-4,0.578908 -0.255058,1.065742 -0.722489,1.383947 0.678744,0.764822 1.092553,1.798109 1.220611,2.997906 l -2.902655,-0.0025 c -0.118534,-1.662289 -0.473075,-2.316691 -1.22802,-2.317397 l -0.0018,2.316692 -2.80035,-0.0021 z m 9.646356,0.0085 0.97543,1.41993 0.976842,-1.418519 2.834217,0.0025 -2.412648,3.523192 -0.0025,2.728736 -2.799997,-0.0025 0.0018,-2.72803 -2.406297,-3.527778 z m -4.075642,8.475487 -0.08678,0.91087 13.560777,-0.966963 -2.817988,-12.838994 -2.78765,-0.103364 -0.23495,2.48038 -8.785225,-0.948266 0.217664,-2.074686 c -1.825978,2.464152 -4.746272,4.060119 -8.038042,4.060119 -3.463925,0 -6.516864,-1.767064 -8.315325,-4.453467 l -0.02223,-7.05e-4 0.388409,3.243439 -9.011708,0.925689 -0.498828,-4.5085 -3.274483,-0.121709 -2.162881,17.573267 19.191111,-1.36842 2.523419,-2.770011" />
      <path
         id="path4558"
         style="fill:#fddd04;fill-opacity:1;fill-rule:nonzero;stroke:none;stroke-width:0.35277778"
         d="m -89.076082,93.283424 c 7.06e-4,-0.218017 0.152753,-0.369358 0.493183,-0.369006 0.576439,3.53e-4 1.145117,0.337256 1.568098,0.915812 l 0.698499,-1.972028 c -0.670983,-0.252236 -1.672166,-0.420864 -2.529416,-0.42157 -1.993195,-0.0014 -3.02895,0.711553 -3.030008,2.096911 -0.0021,1.896887 2.476147,1.697214 2.475441,2.44475 -7.05e-4,0.201436 -0.203905,0.351014 -0.467078,0.351014 -0.559858,3.53e-4 -1.213908,-0.412044 -1.585736,-0.999419 l -0.68968,2.08915 c 0.899583,0.345016 1.840794,0.472016 2.893483,0.472369 2.053167,0.0025 3.038122,-0.752475 3.039181,-2.053519 7.05e-4,-0.487539 -0.151342,-0.881592 -0.44062,-1.166636 -0.712258,-0.705556 -2.425347,-0.934509 -2.425347,-1.387828" />
      <path
         id="path4562"
         style="fill:#fddd04;fill-opacity:1;fill-rule:nonzero;stroke:none;stroke-width:0.35277778"
         d="m -85.420246,94.310713 1.408289,0.0011 -0.0025,3.482975 2.799998,0.0025 0.0028,-3.482975 1.408289,0.0011 0.0028,-2.770364 -5.616928,-0.0042" />
      <path
         id="path4566"
         style="fill:#fddd04;fill-opacity:1;fill-rule:nonzero;stroke:none;stroke-width:0.35277778"
         d="m -75.668057,95.15879 c -0.364772,-7.06e-4 -0.626886,-0.277989 -0.627592,-0.655814 3.53e-4,-0.378178 0.263878,-0.654403 0.629356,-0.65405 0.365478,3.53e-4 0.627239,0.276931 0.627592,0.655108 -0.0011,0.377825 -0.264231,0.654756 -0.629356,0.654756 m 3.242028,-0.484364 c 0.0011,-1.805164 -1.423459,-3.225094 -3.238853,-3.226505 -1.815747,-0.0018 -3.242733,1.41605 -3.243792,3.220508 -0.0018,1.813278 1.422753,3.233208 3.238853,3.235325 1.815747,0.0011 3.242028,-1.417108 3.243792,-3.229328" />
      <path
         id="path4570"
         style="fill:#fddd04;fill-opacity:1;fill-rule:nonzero;stroke:none;stroke-width:0.35277778"
         d="m -68.147541,92.839629 0.169686,-3.53e-4 c 0.525992,7.06e-4 0.662517,0.353484 0.662517,0.6223 -0.0011,0.40252 -0.248003,0.58667 -0.756356,0.586317 h -0.0762 z m -0.0018,2.652536 c 0.754592,7.06e-4 1.109486,0.655108 1.22802,2.317397 l 2.902655,0.0025 c -0.128058,-1.199798 -0.541867,-2.232731 -1.220611,-2.997906 0.46743,-0.318205 0.721783,-0.804686 0.722489,-1.383947 7.05e-4,-0.931686 -0.702028,-1.872544 -2.297642,-1.873956 l -4.132439,-0.0039 -0.0042,6.254397 2.799997,0.0021" />
      <path
         id="path4574"
         style="fill:#fddd04;fill-opacity:1;fill-rule:nonzero;stroke:none;stroke-width:0.35277778"
         d="m -61.729102,97.814149 2.799997,0.0025 0.0025,-2.728736 2.412647,-3.523191 -2.834217,-0.0025 -0.977194,1.41852 -0.975078,-1.419931 -2.833158,-0.0025 2.40665,3.527778" />
      <path
         id="path4578"
         style="fill:#fddd04;fill-opacity:1;fill-rule:nonzero;stroke:none;stroke-width:0.35277778"
         d="m -64.332602,80.48888 c 0,0.01693 -3.53e-4,0.03387 -7.06e-4,0.0508 l 0.0078,0.01834 -0.0099,0.154164 c -0.006,0.284339 -0.02399,0.565856 -0.05292,0.843845 l -0.347133,5.503686 5.487458,0.573969 0.661811,-6.456891 7.71913,-11.420122 -5.942541,-0.532695 -4.154664,7.759347 -2.302228,-8.280047 -6.12528,-0.543278 2.131836,5.217231 c 1.809044,1.821392 2.92735,4.334933 2.92735,7.111647" />
      <path
         id="path4582"
         style="fill:#fddd04;fill-opacity:1;fill-rule:nonzero;stroke:none;stroke-width:0.35277778"
         d="m -74.301396,77.801066 c 1.387828,0 2.512836,1.130653 2.512836,2.525536 0,1.394883 -1.125008,2.525889 -2.512836,2.525889 -1.388181,0 -2.513189,-1.131006 -2.513189,-2.525889 0,-1.394883 1.125008,-2.525536 2.513189,-2.525536 m -6.097411,-3.053292 c -1.407936,1.498248 -2.272947,3.517548 -2.272947,5.741106 0,4.619978 3.726391,8.365066 8.323439,8.365066 4.596694,0 8.323085,-3.745088 8.323085,-8.365066 0,-4.619978 -3.726391,-8.365067 -8.323085,-8.365067 -1.745898,0 -3.3655,0.541161 -4.703939,1.464381 l 0.164747,1.230842" />
      <path
         id="path4586"
         style="fill:#1a5dad;fill-opacity:1;fill-rule:nonzero;stroke:none;stroke-width:0.35277778"
         d="m -74.301396,79.063657 c 0.693914,0 1.256594,0.565503 1.256594,1.262944 0,0.697442 -0.56268,1.262945 -1.256594,1.262945 -0.693914,0 -1.256594,-0.565503 -1.256594,-1.262945 0,-0.697441 0.56268,-1.262944 1.256594,-1.262944 m 0,3.78848 c 1.387828,0 2.512836,-1.130652 2.512836,-2.525536 0,-1.394883 -1.125008,-2.525888 -2.512836,-2.525888 -1.388181,0 -2.513189,1.131005 -2.513189,2.525888 0,1.394884 1.125008,2.525536 2.513189,2.525536" />
      <path
         id="path4590"
         style="fill:#1a5dad;fill-opacity:1;fill-rule:nonzero;stroke:none;stroke-width:0.35277778"
         d="m -91.441104,73.805152 -4.776964,1.160639 -0.524228,-4.566003 15.356417,-1.675341 0.564797,4.464402 -5.10928,-0.19438 1.736725,14.790208 0.03069,-0.0028 -0.02963,0.01376 -0.0011,-0.01094 -5.621161,0.562327 z m 17.092789,-1.681339 c 4.596694,0 8.323085,3.745089 8.323085,8.365067 0,4.619977 -3.726391,8.365066 -8.323085,8.365066 -4.597048,0 -8.323439,-3.745089 -8.323439,-8.365066 0,-2.223559 0.865011,-4.242859 2.272947,-5.741106 l 1.511653,0.07126 -0.1651,-1.230841 c 1.338439,-0.92322 2.958041,-1.464381 4.703939,-1.464381 m 11.081808,-3.42018 2.302227,8.279694 4.154664,-7.759347 5.942542,0.532694 -7.719131,11.420475 -0.661811,6.456539 -5.487458,-0.574322 0.346781,-5.503334 c 0.02928,-0.277988 0.04727,-0.559505 0.05327,-0.843844 l 0.0099,-0.154164 -0.0074,-0.01834 c 0,-0.01693 3.53e-4,-0.03387 3.53e-4,-0.0508 0,-2.776361 -1.118305,-5.290256 -2.92735,-7.111647 l -2.131836,-5.217231 z m -20.799425,5.87128 1.558925,0.07338 c -0.522817,0.7366 -0.949325,1.54693 -1.261181,2.412647 z m 1.768475,14.769747 -0.388408,-3.243439 -0.0046,-0.04057 c 0.0088,0.01376 0.01764,0.02787 0.02681,0.04127 1.798461,2.68605 4.8514,4.453466 8.315325,4.453466 3.291769,0 6.212063,-1.595966 8.038041,-4.059766 l -0.217664,2.074333 8.785225,0.948267 0.23495,-2.480734 0.487539,-5.150202 8.994775,-13.467644 -9.778295,-0.837142 -2.60103,5.010503 -1.434042,-5.354814 -10.14483,-0.911578 2.176639,5.18795 c -1.363134,-0.698147 -2.906536,-1.091847 -4.541308,-1.091847 -1.801284,0 -3.491442,0.478014 -4.951942,1.31445 l -0.631825,-4.716639 -18.626666,2.033764 0.891116,7.980891 4.766734,-1.144764 1.092552,9.871428 0.499181,4.5085" />
      <path
         id="path4594"
         style="fill:#fddd04;fill-opacity:1;fill-rule:nonzero;stroke:none;stroke-width:0.35277778"
         d="m -84.162946,87.781854 -0.03069,0.0028 0.0011,0.01094" />
      <path
         id="path4598"
         style="fill:#fddd04;fill-opacity:1;fill-rule:nonzero;stroke:none;stroke-width:0.35277778"
         d="m -84.193638,87.784677 -1.736725,-14.790208 5.10928,0.194381 -0.564797,-4.464403 -15.356769,1.675341 0.524581,4.566003 4.776963,-1.160639 1.626306,14.541853" />
      <path
         id="path4602"
         style="fill:#1a5dad;fill-opacity:1;fill-rule:nonzero;stroke:none;stroke-width:0.35277778"
         d="m -65.534516,113.5946 -0.379942,3.67065 -2.783063,-0.22366 -0.421217,4.23228 -4.84505,-0.47449 0.373944,-4.21217 -11.268074,-1.11477 0.362302,-4.03578 9.745134,-10.66765 7.484533,0.71226 -1.072445,11.80359 z m 0.158397,-13.55831 -10.154708,-0.961317 -10.633075,11.672357 -0.586316,6.27839 11.300177,1.11901 -0.386644,4.20405 8.278988,0.79904 0.413456,-4.17865 2.811992,0.26458 0.650522,-6.98288 -2.831042,-0.28681 1.049867,-11.0169" />
      <path
         id="path4606"
         style="fill:#fddd04;fill-opacity:1;fill-rule:nonzero;stroke:none;stroke-width:0.35277778"
         d="m -73.210607,112.85412 -6.406092,-0.62971 7.215717,-7.90786 z m 5.944658,-11.37285 -7.484533,-0.71226 -9.745133,10.66765 -0.362303,4.03578 11.268075,1.11477 -0.373945,4.21217 4.845403,0.47449 0.420864,-4.23263 2.783064,0.22401 0.379941,-3.67065 -2.803877,-0.31009" />
      <path
         id="path4610"
         style="fill:#1a5dad;fill-opacity:1;fill-rule:nonzero;stroke:none;stroke-width:0.35277778"
         d="m -74.518002,111.23981 -1.969206,-0.20955 2.162881,-2.35691 z m 1.307394,1.61431 0.809625,-8.53757 -7.215716,7.90786" />
      <path
         id="path4614"
         style="fill:#1a5dad;fill-opacity:1;fill-rule:nonzero;stroke:none;stroke-width:0.35277778"
         d="m -72.109235,63.150205 c -0.175331,0.02752 -0.351014,0.04339 -0.525639,0.06632 l -0.04904,0.253647 c 0.333728,-0.02364 0.672747,-0.02681 1.006122,-0.02681 0.34925,0 0.705909,0.0046 1.054453,0.02575 l -0.05997,-0.254705 c -0.208845,-0.02046 -0.420159,-0.0381 -0.629356,-0.06562 -0.01587,-0.274108 -0.0187,-1.278114 -0.0187,-1.666875 v -0.21202 c 0,-0.381 0.0028,-0.986366 0.01764,-1.214613 0.200378,0.006 0.413455,0.03669 0.547864,0.101952 0.226836,0.112889 0.364772,0.335845 0.364772,0.616303 0,0.559153 -0.328083,0.811036 -0.781756,0.923572 l -0.03281,0.272698 c 0.747536,-0.103364 1.605845,-0.503414 1.605845,-1.377245 0,-0.147814 -0.05644,-0.485422 -0.537987,-0.6858 -0.260702,-0.106186 -0.736952,-0.150636 -1.284463,-0.150636 l -1.245306,0.0042 0.03493,0.248356 c 0.177447,0.01552 0.359481,0.02328 0.5334,0.06032 0.01658,0.250472 0.0187,1.038578 0.0187,1.186039 v 0.20073 c 0,0.432859 -0.0021,1.388181 -0.0187,1.694392" />
      <path
         id="path4618"
         style="fill:#1a5dad;fill-opacity:1;fill-rule:nonzero;stroke:none;stroke-width:0.35277778"
         d="m -68.519016,60.073277 c 0.01552,0.259997 0.02046,1.060097 0.02046,1.21285 v 0.294569 c 0,0.455789 -0.0053,1.284817 -0.02187,1.569156 -0.171803,0.02787 -0.349603,0.05327 -0.523875,0.06315 l -0.04762,0.256117 c 0.288219,-0.01834 0.581025,-0.02575 0.872772,-0.02575 0.353836,0 0.73025,-0.0035 1.086908,0.02928 l -0.06174,-0.258234 c -0.172861,-0.01693 -0.348544,-0.03245 -0.520347,-0.06279 -0.01411,-0.204611 -0.0187,-0.934508 -0.0187,-1.529997 v -0.310092 c 0,-0.550333 0.0046,-1.058333 0.01799,-1.232958 0.173213,-0.02222 0.347133,-0.05186 0.521052,-0.06985 l 0.06244,-0.259998 c -0.286103,0.03316 -0.584553,0.03246 -0.871008,0.03246 -0.354189,0 -0.740128,0.0063 -1.096081,-0.03104 l 0.06068,0.258586 c 0.173214,0.01799 0.346075,0.03845 0.518936,0.06456" />
      <path
         id="path4622"
         style="fill:#1a5dad;fill-opacity:1;fill-rule:nonzero;stroke:none;stroke-width:0.35277778"
         d="m -65.215252,63.463119 h 0.08502 l -0.03493,-0.246592 c -0.12453,-0.01446 -0.248355,-0.03351 -0.371475,-0.05644 0.198262,-0.381 0.637117,-1.068917 0.814212,-1.310217 0.130175,0.155222 0.358069,0.445911 0.626533,0.761295 0.321733,0.373944 0.684742,0.76835 1.081617,1.068564 l 0.406047,-0.08008 c -0.571147,-0.747536 -1.114425,-1.521531 -1.670403,-2.281767 0.107597,-0.129469 0.345017,-0.405694 0.576439,-0.667808 0.159808,-0.178505 0.318558,-0.363361 0.492125,-0.528461 l 0.04163,-0.04022 c 0.120297,-0.02858 0.23883,-0.05115 0.357011,-0.0822 l 0.02434,-0.245886 c -0.201788,0.01693 -0.402166,0.02787 -0.604308,0.02787 -0.26423,0 -0.528461,-0.0063 -0.790575,-0.02893 l 0.04939,0.253647 c 0.07126,0.01129 0.145697,0.02187 0.219781,0.03528 l 0.08855,0.01729 c -0.147814,0.258586 -0.490714,0.7493 -0.6604,0.980016 -0.160867,-0.213783 -0.526697,-0.754944 -0.666397,-0.977194 0.122413,-0.02399 0.246238,-0.03916 0.369711,-0.05256 l 0.07232,-0.252589 c -0.313619,0.01446 -0.629355,0.02505 -0.944739,0.02505 -0.272697,0 -0.579614,0.01023 -0.855133,-0.03634 l 0.03704,0.258234 c 0.116063,0.02258 0.236713,0.0381 0.350661,0.07338 0.114652,0.122767 0.325261,0.388056 0.553155,0.680156 0.220839,0.284692 0.456142,0.591961 0.630414,0.815975 -0.226836,0.290689 -1.088319,1.432278 -1.302808,1.575505 -0.103717,0.04092 -0.225425,0.05186 -0.337256,0.06844 l -0.08502,0.255059 c 0.21978,-0.01764 0.433211,-0.02822 0.652639,-0.02822 0.286455,0 0.71508,0.01976 0.794808,0.01976" />
      <path
         id="path4626"
         style="fill:#1a5dad;fill-opacity:1;fill-rule:nonzero;stroke:none;stroke-width:0.35277778"
         d="m -60.490499,60.306816 c 0.111831,0.336197 0.309386,0.897114 0.414161,1.208969 l -0.845961,-0.01623 c 0.08326,-0.2413 0.288219,-0.792692 0.4318,-1.192742 m -0.413103,3.1623 -0.04868,-0.254706 c -0.137936,-0.01411 -0.276931,-0.02681 -0.412045,-0.05715 0.06174,-0.372533 0.265642,-1.101725 0.323145,-1.282347 0.223308,-0.02505 0.837847,-0.05398 1.058333,-0.05785 0.188384,0.431094 0.32385,0.895702 0.475545,1.340202 -0.15487,0.02928 -0.31115,0.04304 -0.468489,0.05609 l -0.06174,0.258233 c 0.311855,-0.02469 0.632883,-0.02787 0.944386,-0.02787 0.299861,0 0.666397,-0.01552 0.967669,0.03493 l -0.03739,-0.261056 c -0.152047,-0.02011 -0.305506,-0.03986 -0.457553,-0.0695 -0.227894,-0.447675 -0.525639,-1.255183 -0.662517,-1.632303 -0.172508,-0.475897 -0.414514,-1.168047 -0.503766,-1.455561 0.116064,-0.02575 0.235655,-0.03951 0.353836,-0.05256 l 0.03563,-0.252941 c -0.326672,0.02258 -0.662164,0.02646 -0.991305,0.02646 -0.257528,0 -0.518584,-0.0085 -0.775759,-0.02646 l 0.01094,0.251883 c 0.123472,0.01552 0.246944,0.02787 0.368652,0.05256 -0.176389,0.477308 -1.003652,2.701925 -1.199797,3.088922 -0.148519,0.0314 -0.297392,0.05186 -0.448028,0.06632 l -0.03563,0.257175 c 0.221191,-0.02046 0.445911,-0.02787 0.668514,-0.02787 0.297391,0 0.598664,0.0071 0.896055,0.0254" />
      <path
         id="path4630"
         style="fill:#1a5dad;fill-opacity:1;fill-rule:nonzero;stroke:none;stroke-width:0.35277778"
         d="m -56.452958,61.442055 c 0,-0.324203 0.0085,-1.096786 0.02117,-1.386769 0.790575,0.02117 1.014236,0.382411 1.014236,0.638175 0,0.451555 -0.321028,0.663575 -0.522817,0.739069 -0.177447,0.06456 -0.354189,0.08573 -0.512586,0.08925 z m -0.777522,1.710267 c -0.170745,0.03281 -0.351014,0.04798 -0.525639,0.06103 l -0.04833,0.258234 c 0.323498,-0.02822 0.662164,-0.02822 0.987425,-0.02822 0.314678,0 0.638528,0.0021 0.953206,0.02822 l -0.04833,-0.257175 c -0.172861,-0.01446 -0.348897,-0.0314 -0.518583,-0.05997 -0.01376,-0.280458 -0.02223,-0.968375 -0.02223,-1.271411 v -0.05927 c 0.09384,-0.0028 0.236008,-0.01341 0.37465,-0.02434 0.318911,0.38488 1.426281,1.641122 1.788231,1.807633 l 0.432505,-0.05856 c -0.45473,-0.480483 -1.132769,-1.419578 -1.485194,-2.018594 0.370769,-0.228953 0.727075,-0.637823 0.727075,-0.977548 0,-0.313972 -0.190853,-0.526697 -0.476956,-0.640997 -0.358775,-0.141111 -1.019175,-0.14605 -1.490486,-0.14605 l -1.215319,0.0053 0.03528,0.248708 c 0.177448,0.01552 0.359128,0.02822 0.533753,0.05397 0.01517,0.215547 0.02046,1.007181 0.02046,1.17722 v 0.305152 c 0,0.4826 -0.0053,1.347612 -0.02152,1.596673" />
      <path
         id="path4634"
         style="fill:#1a5dad;fill-opacity:1;fill-rule:nonzero;stroke:none;stroke-width:0.35277778"
         d="m -74.278466,62.155724 c 0.160867,0 0.2921,-0.130528 0.2921,-0.292806 0,-0.161572 -0.131233,-0.292805 -0.2921,-0.292805 -0.160161,0 -0.293158,0.131233 -0.293158,0.292805 0,0.162278 0.132997,0.292806 0.293158,0.292806" />
      <path
         id="path4638"
         style="fill:#1a5dad;fill-opacity:1;fill-rule:nonzero;stroke:none;stroke-width:0.35277778"
         d="m -86.785849,61.028599 c -0.08184,0.0187 -0.129117,0.103011 -0.14605,0.1651 -0.100894,0.593019 -0.118533,1.214261 -0.109714,1.843969 0.01094,0.216253 -0.02716,0.530225 0.23742,0.585259 0.128058,0.03669 0.255058,0 0.3556,-0.08255 0.03528,-0.711553 -0.02222,-1.364897 -0.06703,-2.047522 -0.0099,-0.08502 -0.02716,-0.153812 -0.03669,-0.188737 -0.03845,-0.127705 -0.09207,-0.254 -0.233539,-0.275519" />
      <path
         id="path4642"
         style="fill:#1a5dad;fill-opacity:1;fill-rule:nonzero;stroke:none;stroke-width:0.35277778"
         d="m -80.801327,63.120219 c 0.02469,0.225778 0.143228,0.460375 0.344664,0.574675 0.02928,0.01376 0.07303,0.02999 0.131586,0.03634 0.531989,0.04727 0.966258,-0.232833 1.367719,-0.546805 0.04621,-0.100895 -0.02646,-0.228953 -0.09172,-0.310798 -0.383116,-0.0829 -0.748241,0.09102 -1.131358,0.118534 l -7.06e-4,-0.0011 -0.03104,0.0039 c 0.04022,-0.09807 0.11183,-0.310797 0.191911,-0.554214 0.04904,-0.0067 0.146403,-0.01129 0.224719,-0.0056 0.07832,0.0028 0.161573,0.01023 0.208845,0.0095 0.185208,0 0.371475,0.01552 0.506589,-0.08396 0.02258,-0.01834 0.02787,-0.04269 0.02893,-0.05715 0.0053,-0.06385 0.02399,-0.18803 -0.02469,-0.261055 -0.228953,-0.0822 -0.510822,-0.04551 -0.758119,-0.04551 l -0.03528,3.52e-4 0.11818,-0.375002 0.511175,-0.01799 c 0.125942,-0.0081 0.474839,0.0085 0.639587,-0.128058 0.01799,-0.201084 -0.164748,-0.383823 -0.346428,-0.465667 -0.558095,-0.03669 -1.08832,0.08184 -1.617134,0.145697 -0.04974,0.0078 -0.146402,0.01799 -0.146402,0.09172 0.04586,0.237067 0.282927,0.283281 0.465666,0.328436 l -0.0095,0.02716 -0.144639,0.443089 -0.03669,7.06e-4 -0.0702,0.0056 c -0.01482,0.0025 -0.03175,0.0056 -0.04762,0.01023 -0.06032,0.0194 -0.133703,0.04974 -0.111125,0.125236 0.173214,0.347133 -0.17392,0.583494 -0.136878,0.931686" />
      <path
         id="path4646"
         style="fill:#1a5dad;fill-opacity:1;fill-rule:nonzero;stroke:none;stroke-width:0.35277778"
         d="m -77.462991,62.925133 c 0.06385,-0.111478 0.128764,-0.224014 0.194381,-0.336903 0.160513,-0.259644 0.344311,-0.512233 0.551391,-0.745772 0.006,-0.006 0.01094,-0.01199 0.01658,-0.01834 0.0042,-0.0046 0.0088,-0.0099 0.01376,-0.01482 0.04233,-0.04586 0.08784,-0.09137 0.134056,-0.136525 0.01164,-0.0085 0.02963,-0.0187 0.04551,-0.01411 l -3.53e-4,-3.53e-4 c 0.04763,0.0085 0.06491,0.06597 0.08079,0.113594 0.0095,0.03598 0.02258,0.101248 0.02258,0.177095 v 3.53e-4 l -3.53e-4,-3.53e-4 c -0.0039,0.289983 -0.122061,0.54363 -0.344664,0.741892 -0.218016,0.173566 -0.473075,0.310091 -0.754238,0.310797 0.0134,-0.0254 0.02646,-0.0508 0.04057,-0.07655 m -0.985308,0.226483 c 0.01588,0.03493 0.03387,0.06209 0.04763,0.08114 -0.09419,0.195792 -0.181681,0.404989 -0.254,0.624417 -0.106539,0.357011 -0.204964,0.716492 -0.263173,1.095375 -0.01729,0.08608 -0.0441,0.25153 -0.0254,0.396875 0.0039,0.0441 0.01235,0.08678 0.02999,0.126647 0.09102,0.192264 0.301625,0.402872 0.510822,0.375003 0.06421,-0.483658 0.177094,-0.948267 0.309033,-1.403703 0.07126,-0.230717 0.1651,-0.502355 0.285045,-0.792692 0.274813,0.04798 0.497769,-0.03316 0.497769,-0.03316 0.575028,-0.201083 1.120775,-0.747889 1.246364,-1.341966 0.08925,-0.363361 -0.01305,-0.709789 -0.235656,-0.988836 -0.01799,-0.02011 -0.03739,-0.03775 -0.05009,-0.04904 -0.06209,-0.04798 -0.134761,-0.07832 -0.214136,-0.07973 -0.06032,3.52e-4 -0.141464,0.03916 -0.183092,0.06174 -0.301272,0.172508 -0.564092,0.416983 -0.805039,0.699558 -0.0042,0.0053 -0.0085,0.01023 -0.0127,0.01517 -0.142875,0.172155 -0.341489,0.432858 -0.53975,0.756708 -0.05468,-0.0635 -0.05468,-0.195439 -0.04798,-0.27552 0.0635,-0.557741 0.626534,-0.930627 0.563387,-1.510241 -0.104775,-0.0078 -0.173214,0.08996 -0.244475,0.156986 -0.0247,0.02611 -0.05221,0.05574 -0.08043,0.08784 -0.396522,0.496358 -0.712964,1.053747 -0.624769,1.728611 0.01482,0.0896 0.04939,0.188383 0.09066,0.268816" />
      <path
         id="path4650"
         style="fill:#1a5dad;fill-opacity:1;fill-rule:nonzero;stroke:none;stroke-width:0.35277778"
         d="m -87.310782,59.720147 c 0.01411,-0.04939 0.03493,-0.08431 0.04057,-0.0949 0.0381,-0.06385 0.09207,-0.131234 0.146403,-0.185561 0.08255,-0.08255 0.180975,-0.150989 0.286103,-0.209903 0.0187,-0.01023 0.04762,-0.02328 0.07408,-0.03387 0.0028,-0.0014 0.0063,-0.0028 0.01058,-0.0039 0.02893,-0.01058 0.09031,-0.02716 0.178152,-0.01799 h 0.0011 c 0.01729,0.0014 0.03634,0.0049 0.05433,0.0095 -0.363714,0.240594 -0.650875,0.569383 -0.740128,0.676981 -0.0099,0.01164 -0.01976,0.02328 -0.02893,0.03563 -0.04904,-0.04233 -0.04022,-0.111125 -0.02223,-0.176036 m 1.453092,-0.45085 c 0.02081,-0.0067 0.06279,-0.01976 0.106891,-0.02646 0.112184,-0.01023 0.240242,-0.0194 0.280106,0.114652 0.04551,0.237067 -0.155575,0.420159 -0.329495,0.548217 -0.08149,0.05468 -0.164394,0.09102 -0.245886,0.127 -0.255764,0.09208 -0.521052,0.137583 -0.785283,0.09208 0.226131,-0.357011 0.585258,-0.704497 0.973667,-0.855486 m -1.624542,1.173692 c 0.0018,0.03351 0.006,0.07655 0.01623,0.117827 0.006,0.02399 0.01552,0.05045 0.02787,0.08079 0.03986,0.08431 0.0762,0.112536 0.140759,0.112536 0.11818,0.0099 0.173566,-0.182386 0.210255,-0.227542 0.228247,0.07267 0.502003,0.118886 0.748947,0.04516 0.172861,-0.05468 0.31997,-0.127706 0.474134,-0.228248 0.254352,-0.168275 0.486127,-0.376414 0.648405,-0.650169 0.05115,-0.09066 0.0755,-0.178153 0.08678,-0.235303 0.02646,-0.138994 0.0134,-0.263172 -0.07091,-0.363714 -0.01058,-0.01376 -0.02328,-0.02646 -0.03598,-0.0381 h 7.05e-4 c 0,0 -0.07479,-0.07585 -0.176741,-0.107244 -0.01058,-0.0032 -0.02152,-0.0063 -0.03105,-0.0088 -0.04762,-0.01094 -0.0896,-0.0134 -0.115711,-0.0134 -0.0099,0 -0.0194,3.53e-4 -0.03034,0.0014 -0.0321,-0.108303 -0.16263,-0.178153 -0.16263,-0.178153 -0.08961,-0.04904 -0.189795,-0.07303 -0.280106,-0.08396 l -0.01164,-0.0018 c -0.218723,-0.02293 -0.389114,0.0053 -0.522464,0.03916 -0.106539,0.02858 -0.19932,0.06844 -0.253648,0.09419 -0.515761,0.257881 -0.714727,0.555272 -0.790575,0.729545 -0.0021,0.0049 -0.0049,0.0088 -0.0071,0.0127 -0.0078,0.02046 -0.01482,0.04127 -0.02117,0.06209 -0.0095,0.03034 -0.01446,0.05256 -0.01658,0.06456 -0.04621,0.223308 0.0067,0.463197 0.174625,0.631472 0,0.02081 -0.0028,0.08396 -0.0021,0.144992" />
      <path
         id="path4654"
         style="fill:#1a5dad;fill-opacity:1;fill-rule:nonzero;stroke:none;stroke-width:0.35277778"
         d="m -82.986432,63.59541 c 0.08184,-0.0092 0.145697,-0.109714 0.173214,-0.192617 l 0.08961,-1.478139 0.03845,0.06315 c 0.301625,0.484364 0.456142,1.031875 0.931334,1.414991 0.06738,0.0448 0.154163,0.03492 0.228247,0.0049 0.04692,-0.01693 0.112183,-0.04621 0.166511,-0.09454 0.162983,-0.131234 0.249414,-0.359128 0.273403,-0.541161 0.08079,-0.693209 -0.09243,-1.341967 -0.466725,-1.880306 -0.07338,-0.104775 -0.201436,-0.301625 -0.365478,-0.310444 -0.06385,0.02787 -0.06668,0.118533 -0.05503,0.173214 0.118886,0.600427 0.354188,1.146175 0.355952,1.791052 0,0.0254 -7.05e-4,0.06879 -0.0071,0.09419 -0.0085,0.02646 -0.02293,0.04833 -0.04762,0.05115 -0.360539,-0.486834 -0.604661,-1.034345 -1.049514,-1.478492 -0.0194,-0.01764 -0.03246,-0.02646 -0.04022,-0.03069 -0.07161,-0.0321 -0.137583,0.0071 -0.187325,0.06315 -0.01305,0.01799 -0.04127,0.05715 -0.07197,0.124883 -0.140759,0.327731 -0.206728,0.69215 -0.257528,1.056569 -0.02787,0.184503 -0.109714,0.693914 0.01764,0.976489 0.05503,0.1016 0.155222,0.201789 0.274108,0.192617" />
      <path
         id="path4658"
         style="fill:#1a5dad;fill-opacity:1;fill-rule:nonzero;stroke:none;stroke-width:0.35277778"
         d="m -86.160374,61.797655 c -0.0011,0.03563 0,0.128058 0.03986,0.202847 0.03245,0.05503 0.07867,0.105128 0.13088,0.132997 0.0081,0.0039 0.02187,0.0092 0.03845,0.01341 0.21202,0.04516 0.437092,0.06103 0.662164,0.07514 0.113595,0.0085 0.196145,0.01376 0.196145,0.01376 0.425802,0.03598 0.626886,0.09066 0.626886,0.09066 h 0.0025 c 0.170392,0.04727 0.4064,0.08608 0.452967,0.29598 0.0018,0.0092 3.53e-4,0.01482 -0.0025,0.02328 -0.14358,0.230011 -0.572558,0.309033 -0.861483,0.355953 -0.188736,0.02222 -0.667456,0.101247 -0.900642,-0.09066 -0.0314,-0.02752 -0.03845,-0.05927 -0.03986,-0.07726 0,-0.0046 0,-0.0092 3.53e-4,-0.01411 v -3.53e-4 c 0.0021,-0.03245 0.0127,-0.06632 0.03422,-0.09666 0.0042,-0.0046 0.01411,-0.01764 0.03104,-0.02893 0.301625,-0.175331 0.686153,0.199319 0.993775,0.161925 0.310797,-0.03104 0.410281,-0.104775 0.441678,-0.171803 0.02575,-0.05009 0.01376,-0.08431 0.01376,-0.08431 -0.108655,-0.09137 -0.354894,-0.163689 -0.555978,-0.200025 -0.284691,-0.04127 -0.690033,-0.101247 -0.975077,0.0702 -0.0046,0.0028 -0.05856,0.03704 -0.0949,0.09031 -0.05468,0.08149 -0.0949,0.179564 -0.09948,0.283986 3.53e-4,0.01834 0.0028,0.04586 0.01305,0.07726 0.145697,0.36442 0.526344,0.557389 0.873478,0.63747 0.470958,0.07514 0.981075,0.01129 1.329619,-0.298803 h -3.53e-4 c 0.06703,-0.05927 0.103011,-0.112889 0.119592,-0.141817 0.08784,-0.173566 0.1143,-0.452261 0.05821,-0.668514 -0.01658,-0.06068 -0.04269,-0.107597 -0.06421,-0.138289 -0.36195,-0.478013 -1.029406,-0.3429 -1.594556,-0.433916 -0.06985,-0.0092 -0.16898,-0.02646 -0.256469,-0.05468 -0.05433,-0.01517 -0.08643,-0.02963 -0.103717,-0.03845 -0.0049,-0.0025 -0.0095,-0.0056 -0.01411,-0.0085 -0.0011,-7.06e-4 -0.0014,-0.0011 -0.0014,-0.0011 -0.01305,-0.0095 -0.02258,-0.02152 -0.02752,-0.03845 -0.0014,-0.0095 0.0039,-0.01482 0.0078,-0.01764 0.490714,-0.196497 1.079853,-0.170039 1.624895,-0.233539 0.172861,-0.02611 0.354894,-0.0194 0.474486,-0.152047 0.0039,-0.0039 0.0099,-0.01023 0.01693,-0.01976 0,-3.53e-4 0.0011,-7.05e-4 0.0011,-0.0018 7.06e-4,0 7.06e-4,-3.53e-4 7.06e-4,-3.53e-4 0.01129,-0.01588 0.02469,-0.03845 0.03351,-0.06632 0.0053,-0.01446 0.0074,-0.02858 0.0085,-0.03845 v -0.0056 c 7.05e-4,-0.0035 7.05e-4,-0.006 7.05e-4,-0.0071 v -0.0018 c -7.05e-4,-0.01164 -0.0056,-0.02328 -0.01552,-0.03493 -0.0063,-0.006 -0.01623,-0.01199 -0.02469,-0.01587 -0.692855,-0.284692 -1.652058,-0.201437 -2.295877,0.152752 -0.195439,0.1016 -0.282928,0.290336 -0.298803,0.503767" />
      <path
         id="path4662"
         style="fill:#1a5dad;fill-opacity:1;fill-rule:nonzero;stroke:none;stroke-width:0.35277778"
         d="m -92.090568,63.247219 c -0.544689,-0.198614 -1.115836,-0.48895 -1.490133,-1.012119 -0.0067,-0.01023 -0.0095,-0.02011 -0.01129,-0.02611 0,-7.06e-4 -7.06e-4,-0.0014 -7.06e-4,-0.0021 0,-7.05e-4 -3.53e-4,-0.0014 -3.53e-4,-0.0028 -0.01588,-0.09842 0.100895,-0.172155 0.178153,-0.198261 0.209903,-0.07267 0.438503,-0.119239 0.667103,-0.155575 0.398992,-0.06068 0.619831,-0.07197 0.711553,-0.07902 0,0.493183 -0.03634,0.974725 -0.05433,1.476022 m -2.471914,-4.143728 c 0.04939,3.53e-4 0.154517,0 0.225425,-0.01094 0.0441,-0.0099 0.08396,-0.02822 0.0829,-0.07585 -0.0011,-0.01094 -0.0039,-0.01764 -0.0085,-0.02469 -0.08961,-0.112889 -0.234597,-0.06844 -0.332316,-0.124531 -0.0032,-0.0028 -0.0035,-0.0067 -0.0028,-0.01023 0.0046,-0.0074 0.0095,-0.01446 0.01587,-0.01976 h -0.0011 c 0.03422,-0.0321 0.09313,-0.04904 0.143933,-0.05997 0.0011,-3.53e-4 0.01834,-0.0042 0.01976,-0.0049 0.01023,-0.0014 0.02011,-0.0032 0.02999,-0.0046 0.01129,-0.0018 0.01834,-0.0025 0.01834,-0.0025 1.133475,-0.178153 2.230262,0.03034 3.211689,0.390525 1.126067,0.45967 2.436989,1.150761 2.964039,2.379839 0.0127,0.03246 0.02716,0.07091 0.04022,0.113594 0.0011,0.0039 0.0025,0.0078 0.0035,0.01164 0.0021,0.0078 0.0042,0.01588 0.006,0.02364 0.0063,0.02434 0.01199,0.04904 0.01693,0.07408 0.0011,0.0053 0.0025,0.01094 0.0032,0.01623 0.08184,0.430742 -0.01976,0.904523 -0.377472,1.199092 -0.776111,0.621242 -1.879953,0.675217 -2.856794,0.492831 l -0.02611,-1.385006 c 3.53e-4,-0.0702 0.0011,-0.231069 -0.0014,-0.304447 -0.0011,-0.02646 -7.06e-4,-0.01411 3.53e-4,-0.03986 0.128764,-0.0032 0.165805,0 0.209197,0.0018 0.439561,0.01976 1.061508,0.100894 1.522589,0.329141 0.0074,0.0049 0.01834,0.01446 0.01905,0.03069 v 0.0011 c 0,0.0025 -7.06e-4,0.0056 -0.0014,0.0088 -0.0049,0.02787 -0.01729,0.05362 -0.02999,0.07585 0,0.0011 -3.53e-4,0.0018 -0.0014,0.0025 -0.0056,0.0095 -0.01094,0.0187 -0.01693,0.02681 -0.03598,0.05362 -0.05891,0.07232 -0.06597,0.0769 -0.08185,0.06879 -0.202142,0.101953 -0.202142,0.206375 0.0011,0.0081 0.0032,0.01023 0.01129,0.01552 0.09419,0.04057 0.203905,0.05962 0.307975,0.06103 0.01446,0 0.06914,-0.0018 0.126647,-0.03034 0.154869,-0.08467 0.335139,-0.220839 0.375708,-0.391936 0.0441,-0.155575 -0.0074,-0.287161 -0.0769,-0.408517 -0.04339,-0.07232 -0.109361,-0.131586 -0.143581,-0.158397 -0.380647,-0.28963 -0.843491,-0.401108 -1.322916,-0.438855 -0.286456,-0.0254 -0.504473,-0.02293 -0.62865,-0.01729 h -0.03775 l -0.0314,0.0021 c -0.0018,0 -0.02893,0.0025 -0.03069,0.0025 l -0.0194,-0.78987 c -0.02787,-0.20073 -0.136878,-0.437797 -0.347134,-0.511528 -0.219427,0.401814 -0.224366,1.29152 -0.245533,1.361723 -0.02575,0.0053 -0.05327,0.01094 -0.07867,0.01693 -0.143934,0.02575 -0.301273,0.05997 -0.465314,0.104422 -0.136525,0.03457 -0.272697,0.07303 -0.406753,0.124178 -0.248708,0.09842 -0.496711,0.221544 -0.710847,0.428272 -0.01446,0.01552 -0.03351,0.03634 -0.04833,0.05927 -0.05045,0.07902 -0.08396,0.183444 -0.06562,0.282222 0.0018,0.0095 0.0099,0.03634 0.02505,0.06668 0.377825,0.645583 1.062919,1.131358 1.703211,1.42875 0.04621,0.2286 0.04621,0.474839 0.192264,0.639939 0.128058,0.03563 0.269875,0.01552 0.365125,-0.0095 0.127,-0.05151 0.119591,-0.228247 0.130528,-0.350308 0.01023,0.0014 0.0092,0.0014 0.01588,0.0032 1.112661,0.264936 2.336799,0.163688 3.231797,-0.493184 0.559152,-0.419453 0.833614,-1.037872 0.720725,-1.714853 h 3.52e-4 c 0,0 -0.09102,-0.986366 -1.47955,-2.03588 -0.0088,-0.0067 -0.01834,-0.01411 -0.02646,-0.02117 -0.0053,-0.0035 -0.01058,-0.0067 -0.01588,-0.01058 -0.09701,-0.07232 -0.200378,-0.144639 -0.310444,-0.216958 -0.44062,-0.291748 -0.894997,-0.509764 -1.257653,-0.668514 -1.071033,-0.4699 -2.639836,-0.80257 -4.041422,-0.373592 -0.202142,0.07267 -0.275167,0.2667 -0.340431,0.449439 -0.0067,0.02646 -0.01658,0.07655 0.0021,0.10795 0.07444,0.08043 0.195792,0.08855 0.313972,0.09313" />
    </g>
  </g>
</svg>
